# xmcd
#
# Track frame offsets:
#	150
#	21529
#	42518
#	58756
#	76652
#	91732
#	108353
#	120952
#	139304
#	146783
#	163935
#	185767
#	200927
#	212872
#	226290
#
# Disc length: 3282 seconds
#
# Revision: 0
# Processed by: cddbd v1.5.2PL0 Copyright (c) Steve Scherf et al.
# Submitted via: dBpowerAMP V4.0
#
DISCID=e00cd00f
DTITLE=Збірник - Кращі українські балади
DYEAR=2006
DGENRE=Ballad
TTITLE0=ТНМК - Гранули
TTITLE1=Таліта Кум - Життя у мінорі
TTITLE2=Mad Heads XL - Пісня світла
TTITLE3=Крихітка Цахес - Па-па
TTITLE4=D.Lemma - Десь на землі
TTITLE5=Контрабанда - Озирнись
TTITLE6=5'nizza - Немає куль
TTITLE7=АБЫ МС - Милий милий
TTITLE8=Юркеш - Стеляться тумани 
TTITLE9=Ю-ра - Тепло
TTITLE10=Гайдамаки - Під облачком
TTITLE11=Росава - Як Тебе не любити
TTITLE12=Арахнофобія - Тільки б не війна
TTITLE13=Руслана - Світло й тінь
TTITLE14=NIK_To - Luminary song
EXTD=
EXTT0=
EXTT1=
EXTT2=
EXTT3=
EXTT4=
EXTT5=
EXTT6=
EXTT7=
EXTT8=
EXTT9=
EXTT10=
EXTT11=
EXTT12=
EXTT13=
EXTT14=
PLAYORDER=
